{
    "asset" : {
        "generator" : "Khronos glTF Blender I/O v1.8.19",
        "version" : "2.0"
    },
    "scene" : 0,
    "scenes" : [
        {
            "name" : "Scene",
            "nodes" : [
                0,
                1,
                2
            ]
        }
    ],
    "nodes" : [
        {
            "mesh" : 0,
            "name" : "Crops",
            "translation" : [
                -8,
                0,
                9
            ]
        },
        {
            "mesh" : 1,
            "name" : "Ground"
        },
        {
            "mesh" : 2,
            "name" : "Bottom",
            "rotation" : [
                0,
                -0.08715573698282242,
                0,
                0.9961947202682495
            ],
            "translation" : [
                -30,
                1.5,
                -5
            ]
        }
    ],
    "materials" : [
        {
            "doubleSided" : true,
            "name" : "mat_crops",
            "pbrMetallicRoughness" : {
                "baseColorFactor" : [
                    0.06680639088153839,
                    0.024486958980560303,
                    0.006126728840172291,
                    1
                ],
                "metallicFactor" : 0,
                "roughnessFactor" : 0.5
            }
        },
        {
            "doubleSided" : true,
            "name" : "mat_ground",
            "pbrMetallicRoughness" : {
                "baseColorFactor" : [
                    0.019979001954197884,
                    0.0637136772274971,
                    0.004788603633642197,
                    1
                ],
                "metallicFactor" : 0,
                "roughnessFactor" : 0.5
            }
        },
        {
            "doubleSided" : true,
            "name" : "mat_house",
            "pbrMetallicRoughness" : {
                "baseColorFactor" : [
                    0.137583389878273,
                    0.06443052738904953,
                    0.025526631623506546,
                    1
                ],
                "metallicFactor" : 0,
                "roughnessFactor" : 0.5
            }
        }
    ],
    "meshes" : [
        {
            "name" : "Cube.001",
            "primitives" : [
                {
                    "attributes" : {
                        "POSITION" : 0,
                        "NORMAL" : 1,
                        "TEXCOORD_0" : 2
                    },
                    "indices" : 3,
                    "material" : 0
                }
            ]
        },
        {
            "name" : "Plane.001",
            "primitives" : [
                {
                    "attributes" : {
                        "POSITION" : 4,
                        "NORMAL" : 5,
                        "TEXCOORD_0" : 6
                    },
                    "indices" : 7,
                    "material" : 1
                }
            ]
        },
        {
            "name" : "Cube.002",
            "primitives" : [
                {
                    "attributes" : {
                        "POSITION" : 8,
                        "NORMAL" : 9,
                        "TEXCOORD_0" : 10
                    },
                    "indices" : 11,
                    "material" : 2
                }
            ]
        }
    ],
    "accessors" : [
        {
            "bufferView" : 0,
            "componentType" : 5126,
            "count" : 1512,
            "max" : [
                16.899999618530273,
                0.05000000074505806,
                0.9000000357627869
            ],
            "min" : [
                -0.9000000357627869,
                -0.05000000074505806,
                -18.899999618530273
            ],
            "type" : "VEC3"
        },
        {
            "bufferView" : 1,
            "componentType" : 5126,
            "count" : 1512,
            "type" : "VEC3"
        },
        {
            "bufferView" : 2,
            "componentType" : 5126,
            "count" : 1512,
            "type" : "VEC2"
        },
        {
            "bufferView" : 3,
            "componentType" : 5123,
            "count" : 2268,
            "type" : "SCALAR"
        },
        {
            "bufferView" : 4,
            "componentType" : 5126,
            "count" : 4,
            "max" : [
                100,
                0,
                100
            ],
            "min" : [
                -100,
                0,
                -100
            ],
            "type" : "VEC3"
        },
        {
            "bufferView" : 5,
            "componentType" : 5126,
            "count" : 4,
            "type" : "VEC3"
        },
        {
            "bufferView" : 6,
            "componentType" : 5126,
            "count" : 4,
            "type" : "VEC2"
        },
        {
            "bufferView" : 7,
            "componentType" : 5123,
            "count" : 6,
            "type" : "SCALAR"
        },
        {
            "bufferView" : 8,
            "componentType" : 5126,
            "count" : 34,
            "max" : [
                3,
                3.500000238418579,
                4.5
            ],
            "min" : [
                -3,
                -1.5,
                -4.5
            ],
            "type" : "VEC3"
        },
        {
            "bufferView" : 9,
            "componentType" : 5126,
            "count" : 34,
            "type" : "VEC3"
        },
        {
            "bufferView" : 10,
            "componentType" : 5126,
            "count" : 34,
            "type" : "VEC2"
        },
        {
            "bufferView" : 11,
            "componentType" : 5123,
            "count" : 60,
            "type" : "SCALAR"
        }
    ],
    "bufferViews" : [
        {
            "buffer" : 0,
            "byteLength" : 18144,
            "byteOffset" : 0
        },
        {
            "buffer" : 0,
            "byteLength" : 18144,
            "byteOffset" : 18144
        },
        {
            "buffer" : 0,
            "byteLength" : 12096,
            "byteOffset" : 36288
        },
        {
            "buffer" : 0,
            "byteLength" : 4536,
            "byteOffset" : 48384
        },
        {
            "buffer" : 0,
            "byteLength" : 48,
            "byteOffset" : 52920
        },
        {
            "buffer" : 0,
            "byteLength" : 48,
            "byteOffset" : 52968
        },
        {
            "buffer" : 0,
            "byteLength" : 32,
            "byteOffset" : 53016
        },
        {
            "buffer" : 0,
            "byteLength" : 12,
            "byteOffset" : 53048
        },
        {
            "buffer" : 0,
            "byteLength" : 408,
            "byteOffset" : 53060
        },
        {
            "buffer" : 0,
            "byteLength" : 408,
            "byteOffset" : 53468
        },
        {
            "buffer" : 0,
            "byteLength" : 272,
            "byteOffset" : 53876
        },
        {
            "buffer" : 0,
            "byteLength" : 120,
            "byteOffset" : 54148
        }
    ],
    "buffers" : [
        {
            "byteLength" : 54268,
            "uri" : "data:application/octet-stream;base64,"
        }
    ]
}
